<?xml version="1.0" encoding="UTF-8"?>
<svg xmlns="http://www.w3.org/2000/svg" width="160" height="52" viewBox="0 0 160 52" fill="none">
  <path d="M54.4941 32.3406C54.8262 32.3211 55.124 32.2918 55.3877 32.2527C55.6611 32.2039 55.8857 32.0965 56.0615 31.9305C56.2471 31.7547 56.3887 31.4959 56.4863 31.1541C56.584 30.8123 56.6328 30.3387 56.6328 29.7332V18.2342C56.6328 17.9608 56.6328 17.6922 56.6328 17.4285C56.6426 17.1649 56.6523 16.9158 56.6621 16.6815C56.6719 16.4373 56.6816 16.2176 56.6914 16.0223C56.7109 15.827 56.7305 15.6658 56.75 15.5389L54.4941 15.6268V13.3123L62.8145 13.2537C63.9766 13.2537 65.0264 13.3611 65.9639 13.576C66.9111 13.7811 67.7168 14.0984 68.3809 14.5281C69.0547 14.9481 69.5723 15.4803 69.9336 16.1248C70.2949 16.7693 70.4756 17.5311 70.4756 18.41C70.4756 18.9178 70.3926 19.3865 70.2266 19.8162C70.0605 20.2459 69.8018 20.6609 69.4502 21.0613C69.1084 21.4617 68.6641 21.8279 68.1172 22.16C67.5801 22.4822 66.9355 22.7459 66.1836 22.951V22.9803C67.1797 23.1365 68.0391 23.3904 68.7617 23.742C69.4941 24.0838 70.0996 24.494 70.5781 24.9725C71.0566 25.4412 71.4131 25.9686 71.6475 26.5545C71.8818 27.1307 71.999 27.7313 71.999 28.3563C71.999 29.3328 71.8135 30.1922 71.4424 30.9344C71.0811 31.6766 70.5732 32.3016 69.9189 32.8094C69.2744 33.3074 68.5078 33.6834 67.6191 33.9373C66.7305 34.1912 65.7588 34.3182 64.7041 34.3182H54.4941V32.3406ZM60.8516 32.1942C61.3789 32.1942 61.8818 32.1942 62.3604 32.1942C62.8389 32.1844 63.3125 32.1697 63.7812 32.1502C64.3867 32.1209 64.9092 32.0086 65.3486 31.8133C65.7881 31.6082 66.1494 31.3348 66.4326 30.993C66.7158 30.6512 66.9258 30.2508 67.0625 29.7918C67.1992 29.3231 67.2676 28.8104 67.2676 28.2537C67.2676 27.5701 67.1553 26.9988 66.9307 26.5399C66.7158 26.0711 66.4229 25.6951 66.0518 25.4119C65.6904 25.1287 65.2754 24.9285 64.8066 24.8113C64.3477 24.6942 63.8789 24.6356 63.4004 24.6356C62.4531 24.6356 61.6426 24.6453 60.9688 24.6649V29.5428C60.9688 29.8162 60.9639 30.0848 60.9541 30.3484C60.9541 30.6024 60.9492 30.8465 60.9395 31.0809C60.9297 31.3152 60.915 31.5301 60.8955 31.7254C60.8857 31.9109 60.8711 32.0672 60.8516 32.1942ZM62.5361 22.4969C63.1709 22.4871 63.7031 22.3748 64.1328 22.16C64.5625 21.9451 64.9092 21.657 65.1729 21.2957C65.4365 20.9246 65.6221 20.4998 65.7295 20.0213C65.8467 19.5428 65.9053 19.0252 65.9053 18.4686C65.9053 17.8631 65.8076 17.3602 65.6123 16.9598C65.4268 16.5594 65.1826 16.242 64.8799 16.0076C64.5869 15.7733 64.25 15.6072 63.8691 15.5096C63.4883 15.4119 63.1074 15.3631 62.7266 15.3631C62.4824 15.3729 62.2529 15.4022 62.0381 15.451C61.8232 15.4998 61.6377 15.6121 61.4814 15.7879C61.3252 15.9539 61.1982 16.2029 61.1006 16.535C61.0127 16.8572 60.9688 17.3065 60.9688 17.8826V22.5408L62.5361 22.4969ZM81.4033 20.9442C80.9639 20.9442 80.5684 21.0272 80.2168 21.1932C79.875 21.3592 79.5771 21.5887 79.3232 21.8817C79.0693 22.1746 78.8594 22.5311 78.6934 22.951C78.5371 23.3611 78.4248 23.8152 78.3564 24.3133H83.8789C83.8594 23.6981 83.7861 23.1756 83.6592 22.7459C83.5322 22.3162 83.3564 21.9695 83.1318 21.7059C82.917 21.4324 82.6631 21.2371 82.3701 21.1199C82.0771 21.0027 81.7549 20.9442 81.4033 20.9442ZM88.0244 26.2469L78.166 26.4227C78.166 27.243 78.2393 28.0047 78.3857 28.7078C78.542 29.4012 78.7861 30.0018 79.1182 30.5096C79.4502 31.0076 79.8848 31.4031 80.4219 31.6961C80.959 31.9793 81.6182 32.1209 82.3994 32.1209C82.7021 32.1209 83.0391 32.0818 83.4102 32.0037C83.7812 31.9256 84.1572 31.7986 84.5381 31.6229C84.9287 31.4471 85.3193 31.2176 85.71 30.9344C86.1006 30.6414 86.4668 30.285 86.8086 29.8651L88.1562 31.1395C87.6191 31.9109 87.0479 32.5359 86.4424 33.0145C85.8369 33.493 85.2266 33.8641 84.6113 34.1277C84.0059 34.3914 83.4053 34.5672 82.8096 34.6551C82.2236 34.7527 81.6768 34.8016 81.1689 34.8016C80.0654 34.8016 79.0596 34.616 78.1514 34.2449C77.2432 33.8738 76.4619 33.3416 75.8076 32.6483C75.1533 31.9549 74.6455 31.1199 74.2842 30.1434C73.9326 29.1668 73.7568 28.0682 73.7568 26.8475C73.7568 25.7928 73.9326 24.7869 74.2842 23.8299C74.6455 22.8631 75.1533 22.0086 75.8076 21.2664C76.4619 20.5242 77.248 19.9334 78.166 19.494C79.0938 19.0545 80.124 18.8348 81.2568 18.8348C81.8135 18.8348 82.3652 18.8836 82.9121 18.9813C83.4688 19.0789 83.9961 19.2449 84.4941 19.4793C85.002 19.7039 85.4707 20.0018 85.9004 20.3729C86.3398 20.744 86.7158 21.2029 87.0283 21.7498C87.3408 22.2967 87.585 22.9412 87.7607 23.6834C87.9463 24.4256 88.0342 25.2801 88.0244 26.2469ZM89.4746 19.3182C89.9922 19.3084 90.4756 19.1815 90.9248 18.9373C91.374 18.6834 91.7744 18.3709 92.126 17.9998C92.4873 17.6287 92.79 17.2234 93.0342 16.784C93.2881 16.3445 93.4736 15.9344 93.5908 15.5535H95.8027L95.7881 19.3182H99.6113V21.6326L95.7881 21.7059C95.7783 23.1219 95.7686 24.2986 95.7588 25.2361C95.7588 26.1639 95.7539 26.9109 95.7441 27.4774C95.7441 28.034 95.7441 28.4344 95.7441 28.6785C95.7441 28.9129 95.7441 29.0496 95.7441 29.0887C95.7441 29.4402 95.7637 29.7918 95.8027 30.1434C95.8516 30.4852 95.9395 30.7977 96.0664 31.0809C96.2031 31.3543 96.3887 31.5789 96.623 31.7547C96.8672 31.9207 97.1797 32.0037 97.5605 32.0037C97.6875 32.0037 97.8438 31.9842 98.0293 31.9451C98.2246 31.9061 98.4395 31.8279 98.6738 31.7108C98.918 31.5838 99.1768 31.4031 99.4502 31.1688C99.7236 30.9246 100.002 30.6024 100.285 30.202L101.735 31.5496C101.188 32.3504 100.642 32.9705 100.095 33.41C99.5479 33.8494 99.0254 34.1717 98.5273 34.3768C98.0293 34.5818 97.5752 34.7039 97.165 34.743C96.7549 34.782 96.4131 34.8016 96.1396 34.8016C95.8076 34.8016 95.4609 34.7723 95.0996 34.7137C94.748 34.6649 94.3965 34.5672 94.0449 34.4207C93.7031 34.2742 93.376 34.0692 93.0635 33.8055C92.7607 33.532 92.4873 33.1805 92.2432 32.7508C92.0088 32.3211 91.8232 31.8035 91.6865 31.1981C91.5498 30.5828 91.4814 29.8602 91.4814 29.0301L91.5254 21.7938L89.4746 21.8231V19.3182ZM101.867 19.3182C102.385 19.3084 102.868 19.1815 103.317 18.9373C103.767 18.6834 104.167 18.3709 104.519 17.9998C104.88 17.6287 105.183 17.2234 105.427 16.784C105.681 16.3445 105.866 15.9344 105.983 15.5535H108.195L108.181 19.3182H112.004V21.6326L108.181 21.7059C108.171 23.1219 108.161 24.2986 108.151 25.2361C108.151 26.1639 108.146 26.9109 108.137 27.4774C108.137 28.034 108.137 28.4344 108.137 28.6785C108.137 28.9129 108.137 29.0496 108.137 29.0887C108.137 29.4402 108.156 29.7918 108.195 30.1434C108.244 30.4852 108.332 30.7977 108.459 31.0809C108.596 31.3543 108.781 31.5789 109.016 31.7547C109.26 31.9207 109.572 32.0037 109.953 32.0037C110.08 32.0037 110.236 31.9842 110.422 31.9451C110.617 31.9061 110.832 31.8279 111.066 31.7108C111.311 31.5838 111.569 31.4031 111.843 31.1688C112.116 30.9246 112.395 30.6024 112.678 30.202L114.128 31.5496C113.581 32.3504 113.034 32.9705 112.487 33.41C111.94 33.8494 111.418 34.1717 110.92 34.3768C110.422 34.5818 109.968 34.7039 109.558 34.743C109.147 34.782 108.806 34.8016 108.532 34.8016C108.2 34.8016 107.854 34.7723 107.492 34.7137C107.141 34.6649 106.789 34.5672 106.438 34.4207C106.096 34.2742 105.769 34.0692 105.456 33.8055C105.153 33.532 104.88 33.1805 104.636 32.7508C104.401 32.3211 104.216 31.8035 104.079 31.1981C103.942 30.5828 103.874 29.8602 103.874 29.0301L103.918 21.7938L101.867 21.8231V19.3182ZM129.743 29.4988C129.733 30.0555 129.724 30.451 129.714 30.6854C129.704 30.9197 129.689 31.1639 129.67 31.4178C129.66 31.6619 129.646 31.8963 129.626 32.1209L131.574 32.033V34.3182H125.876L125.715 32.7508H125.686C125.383 33.0145 125.065 33.2733 124.733 33.5272C124.411 33.7713 124.064 33.991 123.693 34.1863C123.332 34.3719 122.941 34.5184 122.521 34.6258C122.111 34.743 121.667 34.8016 121.188 34.8016C120.3 34.8016 119.538 34.6697 118.903 34.4061C118.278 34.1522 117.766 33.7567 117.365 33.2195C116.965 32.6824 116.672 31.9988 116.486 31.1688C116.301 30.3289 116.208 29.3279 116.208 28.1658V24.7234C116.208 24.3621 116.213 23.9471 116.223 23.4783C116.242 23.0096 116.276 22.5506 116.325 22.1014L114.216 22.1893V19.9188C114.909 19.9188 115.52 19.8895 116.047 19.8309C116.584 19.7723 117.038 19.699 117.409 19.6111C117.79 19.5233 118.093 19.4305 118.317 19.3328C118.552 19.2254 118.723 19.1229 118.83 19.0252H120.471V28.2098C120.471 29.5281 120.637 30.4949 120.969 31.1102C121.311 31.7254 121.862 32.033 122.624 32.033C122.868 32.033 123.122 31.9988 123.386 31.9305C123.649 31.8524 123.908 31.7498 124.162 31.6229C124.416 31.4861 124.655 31.3299 124.88 31.1541C125.114 30.9783 125.319 30.7928 125.495 30.5975V24.7234C125.495 24.3621 125.5 23.9471 125.51 23.4783C125.529 23.0096 125.563 22.5506 125.612 22.1014L123.503 22.1893V19.9188C124.196 19.9188 124.807 19.8895 125.334 19.8309C125.861 19.7723 126.311 19.699 126.682 19.6111C127.062 19.5233 127.365 19.4305 127.59 19.3328C127.824 19.2254 127.995 19.1229 128.103 19.0252H129.743V29.4988ZM148.552 29.4988C148.552 29.6453 148.547 29.8211 148.537 30.0262C148.537 30.2313 148.532 30.451 148.522 30.6854C148.513 30.9197 148.498 31.1639 148.479 31.4178C148.469 31.6619 148.454 31.8963 148.435 32.1209L150.383 32.033V34.3182H142.663V32.3699C143.044 32.3699 143.342 32.3065 143.557 32.1795C143.781 32.0526 143.947 31.8719 144.055 31.6375C144.162 31.4031 144.23 31.1248 144.26 30.8026C144.289 30.4705 144.304 30.1043 144.304 29.7039L144.289 25.0164C144.289 24.3621 144.235 23.8152 144.128 23.3758C144.021 22.9363 143.869 22.5848 143.674 22.3211C143.488 22.0574 143.259 21.8719 142.985 21.7645C142.722 21.657 142.419 21.6033 142.077 21.6033C141.599 21.6033 141.145 21.7156 140.715 21.9402C140.285 22.1551 139.909 22.409 139.587 22.702V29.4988C139.587 29.6453 139.582 29.8211 139.572 30.0262C139.572 30.2313 139.567 30.451 139.558 30.6854C139.548 30.9197 139.533 31.1639 139.514 31.4178C139.504 31.6619 139.489 31.8963 139.47 32.1209L141.271 32.033V34.3182H133.552V32.3699C133.972 32.3699 134.299 32.3065 134.533 32.1795C134.777 32.0526 134.958 31.8719 135.075 31.6375C135.192 31.4031 135.266 31.1248 135.295 30.8026C135.324 30.4705 135.339 30.1043 135.339 29.7039V24.6502C135.339 24.2889 135.344 23.8885 135.354 23.449C135.373 22.9998 135.407 22.5506 135.456 22.1014L133.347 22.1893V19.9188C134.04 19.9188 134.65 19.8895 135.178 19.8309C135.715 19.7723 136.169 19.699 136.54 19.6111C136.921 19.5233 137.224 19.4305 137.448 19.3328C137.683 19.2254 137.854 19.1229 137.961 19.0252H139.44L139.572 20.5047H139.616C139.909 20.2801 140.231 20.0652 140.583 19.8602C140.935 19.6551 141.291 19.4793 141.652 19.3328C142.023 19.1766 142.404 19.0545 142.795 18.9666C143.195 18.8787 143.591 18.8348 143.981 18.8348C144.899 18.8348 145.656 18.9959 146.252 19.3182C146.857 19.6404 147.341 20.1385 147.702 20.8123C148.063 20.5096 148.444 20.2361 148.845 19.992C149.245 19.7479 149.655 19.5428 150.075 19.3768C150.505 19.201 150.93 19.0692 151.35 18.9813C151.779 18.8836 152.194 18.8348 152.595 18.8348C153.396 18.8348 154.104 18.9471 154.719 19.1717C155.334 19.3865 155.847 19.743 156.257 20.241C156.667 20.7293 156.975 21.369 157.18 22.16C157.395 22.951 157.502 23.9227 157.502 25.075V29.4988C157.502 29.6453 157.497 29.8211 157.487 30.0262C157.487 30.2313 157.482 30.451 157.473 30.6854C157.463 30.9197 157.448 31.1639 157.429 31.4178C157.419 31.6619 157.404 31.8963 157.385 32.1209L159.333 32.033V34.3182H151.76V32.3699C152.102 32.3699 152.37 32.3065 152.565 32.1795C152.771 32.0526 152.922 31.8719 153.02 31.6375C153.127 31.4031 153.19 31.1248 153.21 30.8026C153.239 30.4705 153.254 30.1043 153.254 29.7039L153.239 25.1043C153.239 24.4305 153.176 23.869 153.049 23.4197C152.932 22.9705 152.766 22.6141 152.551 22.3504C152.346 22.0867 152.092 21.9012 151.789 21.7938C151.496 21.6863 151.169 21.6326 150.808 21.6326C150.3 21.6424 149.841 21.7401 149.431 21.9256C149.021 22.1111 148.645 22.3406 148.303 22.6141C148.381 23.0242 148.439 23.4637 148.479 23.9324C148.527 24.4012 148.552 24.9139 148.552 25.4705V29.4988Z" fill="#31364A"></path>
  <circle cx="8.72709" cy="6.54545" r="5.04545" stroke="#496BF2" stroke-width="3"></circle>
  <path fill-rule="evenodd" clip-rule="evenodd" d="M7.2611 22.5454C6.47671 22.5454 5.82072 23.1533 5.81845 23.9377C5.81839 23.9585 5.81836 23.9792 5.81836 24C5.81836 35.6482 15.2611 45.0909 26.9093 45.0909C38.5575 45.0909 48.0002 35.6482 48.0002 24C48.0002 12.3518 38.5575 2.90909 26.9093 2.90909C26.8884 2.90909 26.8676 2.90912 26.8468 2.90918C26.0624 2.91145 25.4545 3.56744 25.4545 4.35183V4.51048C25.4545 5.29535 26.1244 5.90909 26.9093 5.90909C36.9006 5.90909 45.0002 14.0087 45.0002 24C45.0002 33.9913 36.9006 42.0909 26.9093 42.0909C16.9179 42.0909 8.81836 33.9913 8.81836 24C8.81836 23.2152 8.20469 22.5454 7.41991 22.5454H7.2611Z" fill="#496BF2"></path>
  <path fill-rule="evenodd" clip-rule="evenodd" d="M4.02925 9.9968C-2.41378 20.5165 -1.1297 34.5154 7.88149 43.6483C18.3901 54.299 35.428 54.299 45.9367 43.6483C46.1518 43.4303 46.3625 43.2095 46.5688 42.9861C47.0543 42.4603 47.0557 41.6586 46.6008 41.1061C46.0034 40.3807 44.8915 40.3889 44.2493 41.075C44.1024 41.232 43.953 41.3874 43.8012 41.5413C34.4673 51.0013 19.3509 51.0013 10.017 41.5413C1.9749 33.3905 0.845517 20.8745 6.62886 11.4977L4.02925 9.9968Z" fill="#496BF2"></path>
  <path fill-rule="evenodd" clip-rule="evenodd" d="M31.2729 10.9091H22.5456V19.6364H13.8184L13.8184 28.3636H22.5456V37.0909H31.2729V28.3636H40.0002V19.6364H31.2729V10.9091Z" fill="#2DD6C1"></path>
</svg>
