<?xml version="1.0" encoding="UTF-8"?>
<svg xmlns="http://www.w3.org/2000/svg" width="100" height="100" viewBox="0 0 100 100" fill="none">
  <path d="M51.1597 75.8974L63.4931 87.9188C64.1572 88.5661 64.173 89.6398 63.5153 90.3152L57.4429 96.5509C54.5277 99.5446 48.9224 99.8298 41.7529 97.2115C34.6804 94.6287 26.4847 89.3426 18.8847 81.9348C11.3683 74.6087 5.90864 66.6432 3.11368 59.6889C0.285704 52.6525 0.319404 47.0362 3.07101 43.962L9.34761 37.5165C10.0058 36.8406 11.0773 36.829 11.7413 37.4763L24.0758 49.4986C24.7401 50.1462 24.7564 51.2189 24.0979 51.895L18.68 57.4587C17.434 58.7382 17.2863 60.7078 18.292 62.1625C20.8556 65.8709 23.9905 69.5924 27.6244 73.1344C31.1831 76.603 34.9027 79.5884 38.5985 82.0279C40.0778 83.0053 42.0553 82.8288 43.3147 81.5355L48.7659 75.9376C49.4241 75.2618 50.4956 75.2501 51.1597 75.8974Z" fill="white" stroke="#31364A" stroke-width="2"></path>
  <path d="M72.5564 30.4437C81.1479 39.0352 81.1479 52.9648 72.5564 61.5564C63.9648 70.1479 50.0352 70.1479 41.4437 61.5564C32.8521 52.9648 32.8521 39.0352 41.4437 30.4437C50.0352 21.8521 63.9648 21.8521 72.5564 30.4437Z" fill="#2DD6C1" stroke="#31364A" stroke-width="2"></path>
  <path d="M55 52.75L55.75 52.75L55.75 52L55.75 49.5416L55.75 48.7916L55 48.7916L52.2028 48.7916C53.9102 47.2173 55.5157 45.3801 55.5157 43.0121C55.5157 41.6767 55.0567 40.4655 54.1316 39.5908C53.2091 38.7186 51.8967 38.25 50.3145 38.25C48.4316 38.25 46.7885 38.8944 45.7021 39.7208L45.2513 40.0637L45.4578 40.5912L46.2973 42.7349L46.6617 43.6654L47.4534 43.0556C48.0667 42.5831 48.8608 42.1494 49.7093 42.1494C50.3012 42.1494 50.612 42.3136 50.7744 42.4749C50.9372 42.6365 51.0463 42.8896 51.0482 43.2579C51.0322 43.7672 50.7971 44.3409 50.159 45.1364C49.5136 45.941 48.5268 46.8873 47.1379 48.1387L47.1379 48.1387L47.1347 48.1416L45.4948 49.6363L45.25 49.8594L45.25 50.1906L45.25 52L45.25 52.75L46 52.75L55 52.75Z" fill="white" stroke="#31364A" stroke-width="1.5" stroke-linecap="round"></path>
  <path d="M67.4706 52.75L68.2206 52.75L68.2206 52L68.2206 49.8885L69 49.8885L69.75 49.8885L69.75 49.1385L69.75 47.0338L69.75 46.2838L69 46.2838L68.2206 46.2838L68.2206 40L68.2206 39.25L67.4706 39.25L63.8235 39.25L63.4198 39.25L63.1975 39.587L58.374 46.8977L58.25 47.0856L58.25 47.3108L58.25 49.1385L58.25 49.8885L59 49.8885L63.8971 49.8885L63.8971 52L63.8971 52.75L64.6471 52.75L67.4706 52.75ZM63.1431 46.2838L63.8971 45.1252L63.8971 46.2838L63.1431 46.2838Z" fill="white" stroke="#31364A" stroke-width="1.5" stroke-linecap="round"></path>
  <path d="M31 16.9301L38.028 23.9231M47.9968 8.48945L50.5717 18.0397M66.9499 8L64.3816 17.5485M86.3455 72L79.3175 65.007M96 55.4005L86.402 52.8385M95.3656 34.7831L85.7693 37.3386M83.3877 16.3892L76.3645 23.3775" stroke="#31364A" stroke-width="2" stroke-linecap="round"></path>
</svg>
