<?xml version="1.0" encoding="UTF-8"?>
<svg xmlns="http://www.w3.org/2000/svg" width="100" height="100" viewBox="0 0 100 100" fill="none">
  <path d="M14 79C14 72.9249 18.9249 68 25 68H75C81.0751 68 86 72.9249 86 79V99H14V79Z" stroke="#31364A" stroke-width="2"></path>
  <rect x="42" y="73" width="16" height="26" fill="#496BF2"></rect>
  <path d="M74.7214 36.5096C74.0142 35.8578 73.4883 35.7692 72.8648 35.5577V20.6442C72.8648 15.0385 68.591 9.96154 62.9801 9.96154C62.9801 9.96154 62.8762 9.96154 62.7723 9.96154C60.3825 8.16346 56.7458 7 52.7974 7C44.381 7 40.4326 8.79808 35.9647 10.8077C33.5749 11.8654 31.0812 13.0288 27.5484 14.0865C27.1327 14.2981 26.821 14.5096 26.7171 14.8269C26.5093 15.1442 26.5093 15.5673 26.7171 15.9904C26.7171 16.0962 27.3406 17.4712 28.8991 19.2692C28.2757 20.1154 27.119 21.8077 27.119 26.0385V35.5577C25.5605 36.4038 24.2234 37.6731 24.0156 39.3654C23.9117 40.7404 24.3273 42.2211 25.2625 43.2788C26.1976 44.3365 27.5484 44.9712 29.003 44.9712H30.2381C31.0693 50.7885 33.9905 55.7596 38.5623 58.9327C38.5623 58.9327 42.6147 62 50.0958 62C57.3692 62 61.4284 58.9327 61.4284 58.9327C65.8963 55.7596 68.9146 50.7885 69.7458 44.9712H70.773C73.3706 44.9712 75.6566 42.9615 75.9683 40.4231C76.0722 39.0481 75.9839 37.6731 74.7214 36.5096ZM36.996 12.8173C41.36 10.8077 45.0045 9.11538 52.7974 9.11538C57.7848 9.11538 62.2528 11.8654 63.1879 14.7212C63.3957 15.4615 64.227 15.7788 64.8504 15.5673C65.5777 15.3558 65.9934 14.5096 65.6816 13.875C65.6816 13.5577 65.5777 13.3462 65.4738 13.1346C68.2793 14.1923 70.7855 16.9423 70.7855 20.1154V35.5577H68.7061C67.8749 35.5577 66.6268 34.5 66.6268 33.3365V31.8558C66.6268 25.5096 62.6684 20.8558 62.4606 20.6442C62.1489 20.3269 61.5254 20.1154 61.1098 20.3269C53.6286 22.7596 43.0303 24.7692 35.1335 20.75C32.328 19.375 30.0421 17.4712 29.2109 16.3077C32.2241 15.3558 34.9179 13.7692 36.996 12.8173ZM73.9045 39.7885C73.9045 41.9038 72.1238 42.9615 70.773 42.9615H69.7458V42.1154C69.7458 41.375 69.4335 40.8462 68.7061 40.8462C67.9788 40.8462 67.6665 41.375 67.6665 42.1154C67.6665 51.8462 59.6551 59.8846 49.9919 59.8846C40.3287 59.8846 32.3174 51.9519 32.3174 42.2212C32.3174 41.4808 31.7976 40.8462 31.1851 40.8462C30.5725 40.8462 30.2381 41.4808 30.2381 42.2212V42.9615H29.003C28.1587 42.9615 27.4139 42.5211 27.119 42.2212C26.8242 41.9212 26.0794 41.375 26.0794 39.7885C26.0794 38.2019 27.964 37.6731 29.2109 37.6731H31.2777C33.6676 37.6731 35.4452 35.7692 35.4452 33.3365V22.1538C35.4452 21.4135 35.1241 20.5673 34.3968 20.5673C33.6694 20.5673 33.3571 21.4135 33.3571 22.1538V33.3365C33.3571 34.1827 32.0163 35.5577 31.1851 35.5577H29.1984V26.5673C29.1984 23.3942 30.3423 20.9615 30.7579 20.3269C31.5891 20.9615 32.6397 21.7019 33.7827 22.3365C36.8999 23.9231 40.5365 24.875 44.6928 24.9808C49.5763 25.1923 55.0833 24.2404 61.2137 22.3365C62.2528 23.6058 64.6426 27.7308 64.6426 31.75V33.2308C64.6426 35.5577 66.5129 37.5673 68.9027 37.5673H71.0847C71.7082 37.5673 72.9689 37.779 73.3847 38.2019C73.9045 38.7308 73.9045 39.4297 73.9045 39.7885Z" fill="#31364A"></path>
  <path d="M41.5425 35.5428C40.9587 35.5428 40.4854 36.1596 40.4854 36.9207V38.3936C40.4854 39.1547 40.9587 39.7714 41.5425 39.7714C42.1263 39.7714 42.5996 39.1547 42.5996 38.3936V36.9207C42.5996 36.1598 42.1263 35.5428 41.5425 35.5428Z" fill="#31364A"></path>
  <path d="M58.4566 35.5428C57.8726 35.5428 57.3994 36.1596 57.3994 36.9207V38.3936C57.3994 39.1547 57.8726 39.7714 58.4566 39.7714C59.0405 39.7714 59.5137 39.1547 59.5137 38.3936V36.9207C59.5137 36.1598 59.0404 35.5428 58.4566 35.5428Z" fill="#31364A"></path>
  <path d="M43.6572 48.2286C44.7144 48.7571 47.4629 49.8143 50.0001 49.8143C52.5372 49.8143 55.6382 48.7571 56.3429 48.2286" stroke="#31364A" stroke-width="2" stroke-linecap="round" stroke-linejoin="round"></path>
  <path d="M42.3793 31.3143H39.6486C38.9431 31.3143 38.3711 31.7874 38.3711 32.3714C38.3711 32.9554 38.9431 33.4286 39.6486 33.4286H42.3793C43.0848 33.4286 43.6568 32.9554 43.6568 32.3714C43.6568 31.7874 43.0848 31.3143 42.3793 31.3143Z" fill="#31364A"></path>
  <path d="M57.6203 33.4286H60.351C61.0567 33.4286 61.6285 32.9554 61.6285 32.3714C61.6285 31.7874 61.0567 31.3143 60.351 31.3143H57.6203C56.9146 31.3143 56.3428 31.7874 56.3428 32.3714C56.3428 32.9554 56.9147 33.4286 57.6203 33.4286Z" fill="#31364A"></path>
  <path d="M39 65.4744V58.7113C42.1436 60.3104 45.935 61.2355 50 61.2355C54.065 61.2355 57.8564 60.3104 61 58.7113V65.4744C61 71.2499 56.1135 76 50 76C43.8865 76 39 71.2499 39 65.4744Z" fill="white" stroke="#31364A" stroke-width="2"></path>
  <path d="M33.8659 63.6334L33.8815 63.6271L39.3572 61.3668L48.7207 99H40.2534C39.8701 99 39.5205 98.7809 39.3534 98.436L29.51 78.1204C29.3268 77.7423 29.3995 77.2901 29.6918 76.9884L31.9079 74.7015C32.8047 73.7761 33.0103 72.3812 32.4186 71.2364L29.9059 66.3745C29.6337 65.8479 29.8767 65.2016 30.4284 64.9847L33.8659 63.6334Z" fill="white" stroke="#31364A" stroke-width="2" stroke-linejoin="round"></path>
  <path d="M66.1341 63.6334L66.1185 63.6271L60.6428 61.3668L51.2793 99H59.7466C60.1299 99 60.4795 98.7809 60.6466 98.436L70.49 78.1204C70.6732 77.7423 70.6005 77.2901 70.3082 76.9884L68.0921 74.7015C67.1953 73.7761 66.9897 72.3812 67.5814 71.2364L70.0941 66.3745C70.3663 65.8479 70.1233 65.2016 69.5716 64.9847L66.1341 63.6334Z" fill="white" stroke="#31364A" stroke-width="2" stroke-linejoin="round"></path>
  <path d="M65.25 79.25H66.25V78.25V73H71.75V78.25V79.25H72.75H78V84.75H72.75H71.75V85.75V91H66.25V85.75V84.75H65.25H60V79.25H65.25Z" fill="#2DD6C1" stroke="#31364A" stroke-width="2"></path>
</svg>
